<?xml version="1.0" encoding="UTF-8" standalone="no"?>
<svg
   xmlns:dc="http://purl.org/dc/elements/1.1/"
   xmlns:cc="http://creativecommons.org/ns#"
   xmlns:rdf="http://www.w3.org/1999/02/22-rdf-syntax-ns#"
   xmlns:svg="http://www.w3.org/2000/svg"
   xmlns="http://www.w3.org/2000/svg"
   xmlns:sodipodi="http://sodipodi.sourceforge.net/DTD/sodipodi-0.dtd"
   xmlns:inkscape="http://www.inkscape.org/namespaces/inkscape"
   inkscape:version="1.0 (4035a4fb49, 2020-05-01)"
   sodipodi:docname="ISQED_logo.svg"
   viewBox="0 0 798.52154 483.51318"
   height="483.51318"
   width="798.52155"
   xml:space="preserve"
   id="svg2"
   version="1.1"><metadata
     id="metadata8"><rdf:RDF><cc:Work
         rdf:about=""><dc:format>image/svg+xml</dc:format><dc:type
           rdf:resource="http://purl.org/dc/dcmitype/StillImage" /><dc:title></dc:title></cc:Work></rdf:RDF></metadata><defs
     id="defs6"><clipPath
       id="clipPath30"
       clipPathUnits="userSpaceOnUse"><path
         id="path28"
         d="m 1409.59,3532.12 c 0,-72.28 -58.59,-130.86 -130.86,-130.86 -72.27,0 -130.86,58.58 -130.86,130.86 0,72.27 58.59,130.85 130.86,130.85 72.27,0 130.86,-58.58 130.86,-130.85 z" /></clipPath><radialGradient
       id="radialGradient38"
       spreadMethod="pad"
       gradientTransform="matrix(130.856,0,0,-130.856,1278.73,3532.11)"
       gradientUnits="userSpaceOnUse"
       r="1"
       cy="0"
       cx="0"
       fy="0"
       fx="0"><stop
         id="stop32"
         offset="0"
         style="stop-opacity:1;stop-color:#3b7cc8" /><stop
         id="stop34"
         offset="0.509202"
         style="stop-opacity:1;stop-color:#3b7cc8" /><stop
         id="stop36"
         offset="1"
         style="stop-opacity:1;stop-color:#ffffff" /></radialGradient><clipPath
       id="clipPath48"
       clipPathUnits="userSpaceOnUse"><path
         id="path46"
         d="m 1347.02,2958.58 c 0,-371.97 -301.55,-673.5 -673.567,-673.5 C 301.469,2285.08 0,2586.61 0,2958.58 c 0,371.94 301.469,673.49 673.453,673.49 372.017,0 673.567,-301.55 673.567,-673.49 z" /></clipPath><radialGradient
       id="radialGradient60"
       spreadMethod="pad"
       gradientTransform="matrix(896.068,0,0,-896.068,664.439,3224.46)"
       gradientUnits="userSpaceOnUse"
       r="1"
       cy="0"
       cx="0"
       fy="0"
       fx="0"><stop
         id="stop50"
         offset="0"
         style="stop-opacity:1;stop-color:#60b4e7" /><stop
         id="stop52"
         offset="0.368132"
         style="stop-opacity:1;stop-color:#5da2dd" /><stop
         id="stop54"
         offset="0.824176"
         style="stop-opacity:1;stop-color:#397dc9" /><stop
         id="stop56"
         offset="0.989011"
         style="stop-opacity:1;stop-color:#2a619e" /><stop
         id="stop58"
         offset="1"
         style="stop-opacity:1;stop-color:#2a619e" /></radialGradient><clipPath
       id="clipPath70"
       clipPathUnits="userSpaceOnUse"><path
         id="path68"
         d="m 1133.51,3225 c 0,-206.39 -211.709,-373.73 -472.85,-373.73 -261.176,0 -472.887,167.34 -472.887,373.73 0,206.41 211.711,373.74 472.887,373.74 261.141,0 472.85,-167.33 472.85,-373.74 z" /></clipPath><linearGradient
       id="linearGradient76"
       spreadMethod="pad"
       gradientTransform="matrix(0,-684.189,-684.189,0,660.642,3352.54)"
       gradientUnits="userSpaceOnUse"
       y2="0"
       x2="1"
       y1="0"
       x1="0"><stop
         id="stop72"
         offset="0"
         style="stop-opacity:1;stop-color:#86ccee" /><stop
         id="stop74"
         offset="1"
         style="stop-opacity:1;stop-color:#4984cd" /></linearGradient><clipPath
       id="clipPath100"
       clipPathUnits="userSpaceOnUse"><path
         id="path98"
         d="m 1335.15,3486.52 c 10.01,12.44 16.02,28.28 16.02,45.47 0,40.1 -32.5,72.56 -72.57,72.56 -40.07,0 -72.57,-32.46 -72.57,-72.56 0,-40.06 32.5,-72.56 72.57,-72.56 7.25,0 14.25,1.07 20.86,3.06 29.96,-55.97 44.52,-120.22 44.56,-189.72 0.33,-200.77 -123.95,-443.43 -346.692,-626.51 -184.336,-151.85 -395.812,-229.89 -574.965,-229.77 -69.066,0 -133.285,11.52 -189.472,34.44 -1.293,0.51 -2.52,1.07 -3.825,1.61 30.344,-26.65 63.063,-50.63 97.86,-71.55 30.793,-4.89 62.707,-7.33 95.437,-7.33 191.43,0.14 410.953,82.22 602.187,239.54 230.57,190.05 361.98,441.42 362.3,659.57 0.05,76.97 -16.68,149.98 -51.7,213.75 z" /></clipPath><linearGradient
       id="linearGradient108"
       spreadMethod="pad"
       gradientTransform="matrix(1329.34,0,0,-1329.34,57.5123,2989.1)"
       gradientUnits="userSpaceOnUse"
       y2="0"
       x2="1"
       y1="0"
       x1="0"><stop
         id="stop102"
         offset="0"
         style="stop-opacity:1;stop-color:#ffffff" /><stop
         id="stop104"
         offset="0.236264"
         style="stop-opacity:1;stop-color:#ffffff" /><stop
         id="stop106"
         offset="1"
         style="stop-opacity:1;stop-color:#3f81cb" /></linearGradient></defs><sodipodi:namedview
     inkscape:current-layer="g10"
     inkscape:window-maximized="1"
     inkscape:window-y="-11"
     inkscape:window-x="-11"
     inkscape:cy="274.88341"
     inkscape:cx="344.60058"
     inkscape:zoom="1.1102174"
     showgrid="false"
     id="namedview4"
     inkscape:window-height="986"
     inkscape:window-width="1920"
     inkscape:pageshadow="2"
     inkscape:pageopacity="0"
     guidetolerance="10"
     gridtolerance="10"
     objecttolerance="10"
     borderopacity="1"
     bordercolor="#666666"
     pagecolor="#ffffff" /><g
     transform="matrix(1.3333333,0,0,-1.3333333,0,488.39599)"
     inkscape:label="ink_ext_XXXXXX"
     inkscape:groupmode="layer"
     id="g10"><g
       transform="scale(0.1)"
       id="g12"><path
         id="path14"
         style="fill:#3164b2;fill-opacity:1;fill-rule:nonzero;stroke:none"
         d="M 175.828,1101.72 376.715,2157.97 H 687.758 L 486.875,1101.72 H 175.828" /><path
         id="path16"
         style="fill:#3164b2;fill-opacity:1;fill-rule:nonzero;stroke:none"
         d="m 787.109,1380.36 c 60.481,-30.24 174.957,-73.44 276.481,-73.44 88.56,0 133.92,43.2 133.92,95.04 0,51.85 -34.56,88.57 -131.76,136.09 -123.117,60.48 -224.641,149.04 -224.641,280.8 0,218.16 192.241,362.89 464.411,362.89 123.12,0 220.32,-23.77 272.16,-54 l -73.45,-220.33 c -45.35,21.6 -118.8,47.52 -211.68,47.52 -82.08,0 -138.24,-36.72 -138.24,-92.88 0,-43.2 43.2,-79.92 129.61,-120.96 114.48,-58.32 235.44,-142.56 235.44,-289.45 0,-241.91 -205.2,-375.84 -483.85,-373.68 -133.924,4.33 -261.365,36.72 -324.002,84.24 l 75.601,218.16" /><path
         id="path18"
         style="fill:#3164b2;fill-opacity:1;fill-rule:nonzero;stroke:none"
         d="m 2234.29,2214.13 c -116.64,-118.8 -181.45,-354.24 -181.45,-524.88 0,-205.21 92.89,-352.08 302.41,-352.08 95.04,0 177.12,38.88 241.92,103.67 114.49,116.64 181.44,356.41 181.44,531.37 0,164.17 -64.8,349.93 -291.6,349.93 -99.36,0 -185.76,-41.04 -252.72,-108.01 z M 2873.65,840.352 c -198.72,58.32 -412.56,142.57 -544.32,205.208 -66.96,30.24 -88.56,36.73 -101.52,36.73 -282.97,21.59 -505.45,241.91 -505.45,606.96 0,248.4 88.56,501.12 252.72,667.45 142.57,146.88 341.29,224.64 546.49,224.64 395.29,0 587.53,-282.96 587.53,-606.96 0,-244.1 -88.56,-507.62 -246.24,-665.3 -56.17,-58.32 -129.6,-108 -211.69,-142.56 v -4.32 c 88.57,-23.76 209.53,-54 332.65,-75.6 L 2873.65,840.352" /><path
         id="path20"
         style="fill:#3164b2;fill-opacity:1;fill-rule:nonzero;stroke:none"
         d="m 4128.58,1719.49 h -518.41 l -66.96,-352.09 h 581.06 l -49.69,-265.68 h -892.09 l 276.48,1455.86 h 861.86 l -51.86,-265.68 h -548.63 l -60.49,-311.04 h 518.42 l -49.69,-261.37" /><path
         id="path22"
         style="fill:#3164b2;fill-opacity:1;fill-rule:nonzero;stroke:none"
         d="m 4659.93,1352.29 c 36.72,-4.32 82.07,-8.65 136.08,-8.65 168.47,0 317.52,60.48 412.57,170.65 99.36,112.31 151.19,263.52 151.19,438.48 0,228.97 -127.44,365.05 -384.49,365.05 -53.98,0 -99.35,-2.16 -131.75,-8.64 z m -86.4,1183.69 c 123.12,21.6 261.36,32.4 401.75,32.4 226.82,0 408.26,-51.84 531.37,-157.68 116.66,-97.2 190.1,-241.92 192.25,-455.77 0,-282.96 -118.79,-524.89 -300.24,-669.61 -168.49,-133.91 -382.32,-194.4 -697.69,-194.4 -174.96,0 -326.18,15.12 -397.44,28.08 l 270,1416.98" /><g
         id="g24"><g
           clip-path="url(#clipPath30)"
           id="g26"><path
             id="path40"
             style="fill:url(#radialGradient38);fill-opacity:1;fill-rule:nonzero;stroke:none"
             d="m 1409.59,3532.12 c 0,-72.28 -58.59,-130.86 -130.86,-130.86 -72.27,0 -130.86,58.58 -130.86,130.86 0,72.27 58.59,130.85 130.86,130.85 72.27,0 130.86,-58.58 130.86,-130.85" /></g></g><g
         id="g42"><g
           clip-path="url(#clipPath48)"
           id="g44"><path
             id="path62"
             style="fill:url(#radialGradient60);fill-opacity:1;fill-rule:nonzero;stroke:none"
             d="m 1347.02,2958.58 c 0,-371.97 -301.55,-673.5 -673.567,-673.5 C 301.469,2285.08 0,2586.61 0,2958.58 c 0,371.94 301.469,673.49 673.453,673.49 372.017,0 673.567,-301.55 673.567,-673.49" /></g></g><g
         id="g64"><g
           clip-path="url(#clipPath70)"
           id="g66"><path
             id="path78"
             style="fill:url(#linearGradient76);fill-opacity:1;fill-rule:nonzero;stroke:none"
             d="m 1133.51,3225 c 0,-206.39 -211.709,-373.73 -472.85,-373.73 -261.176,0 -472.887,167.34 -472.887,373.73 0,206.41 211.711,373.74 472.887,373.74 261.141,0 472.85,-167.33 472.85,-373.74" /></g></g><path
         id="path80"
         style="fill:#ffffff;fill-opacity:1;fill-rule:nonzero;stroke:none"
         d="m 528.367,3493.06 c 0,-38.83 -31.476,-70.29 -70.293,-70.29 -38.82,0 -70.293,31.46 -70.293,70.29 0,38.85 31.473,70.29 70.293,70.29 38.817,0 70.293,-31.44 70.293,-70.29" /><path
         id="path82"
         style="fill:#ffffff;fill-opacity:1;fill-rule:nonzero;stroke:none"
         d="m 847.617,3465.85 c 0,-38.84 -31.472,-70.31 -70.289,-70.31 -38.851,0 -70.32,31.47 -70.32,70.31 0,38.82 31.469,70.29 70.32,70.29 38.817,0 70.289,-31.47 70.289,-70.29" /><path
         id="path84"
         style="fill:#ffffff;fill-opacity:1;fill-rule:nonzero;stroke:none"
         d="m 557.988,3244.27 c 0,-38.82 -31.48,-70.31 -70.32,-70.31 -38.801,0 -70.289,31.49 -70.289,70.31 0,38.81 31.488,70.28 70.289,70.28 38.84,0 70.32,-31.47 70.32,-70.28" /><path
         id="path86"
         style="fill:#ffffff;fill-opacity:1;fill-rule:nonzero;stroke:none"
         d="m 318.254,2939.84 c 0,-38.84 -31.473,-70.31 -70.32,-70.31 -38.817,0 -70.293,31.47 -70.293,70.31 0,38.8 31.476,70.28 70.293,70.28 38.847,0 70.32,-31.48 70.32,-70.28" /><path
         id="path88"
         style="fill:#ffffff;fill-opacity:1;fill-rule:nonzero;stroke:none"
         d="m 895.195,2608.25 c 0,-38.83 -31.468,-70.31 -70.293,-70.31 -38.816,0 -70.293,31.48 -70.293,70.31 0,38.85 31.477,70.29 70.293,70.29 38.825,0 70.293,-31.44 70.293,-70.29" /><path
         id="path90"
         style="fill:#ffffff;fill-opacity:1;fill-rule:nonzero;stroke:none"
         d="m 523.477,2730.87 c -104.286,59.15 -192.618,131.84 -260.887,210.23 45.578,75.6 103.176,153.56 171.148,229.13 15.758,17.56 31.727,34.52 47.789,50.97 28.621,-104.17 73.493,-218.78 133.004,-333.82 51.172,-98.83 107.446,-186.8 164.367,-259.83 -84.269,21.12 -170.992,55.41 -255.421,103.32 z m -54.946,725.43 c 0,8.81 0.246,17.33 0.715,25.59 18.52,1.13 37.426,1.72 56.688,1.72 69.296,0 142.836,-7.4 218.203,-22.74 -6.371,-3.74 -12.793,-7.53 -19.196,-11.48 -75.507,-46.3 -154.207,-107.81 -230.718,-182.03 -16.977,70.56 -25.743,134.85 -25.692,188.94 z m 519.227,-997.27 c -45.653,27.77 -96.016,72.64 -147.254,131.24 46.141,-7.93 91.266,-11.92 134.652,-11.92 81.854,0 157.544,14.02 222.064,42.13 31.48,13.72 60.31,30.87 85.8,51.34 8.39,17.78 16.07,35.97 22.9,54.58 -31.27,-35.55 -71.27,-63.64 -118.2,-84.11 -60.9,-26.53 -133.44,-40.17 -212.564,-40.14 -50.73,-0.03 -104.203,5.63 -158.988,16.89 -62.066,75.85 -124.504,170.91 -180.539,279.28 -61.348,118.43 -106.801,236.63 -134.699,342.35 78.468,77.41 159.453,141.24 236.433,188.44 14,8.6 27.91,16.62 41.625,24.11 9.02,-2.11 18.078,-4.33 27.141,-6.68 162.351,-42.11 296.581,-133.24 390.061,-239.29 93.55,-106.01 145.89,-227.02 145.75,-326.96 0,-1.71 -0.04,-3.44 -0.07,-5.11 3.36,27.3 5.15,55.13 5.15,83.4 0,13.65 -0.44,27.19 -1.26,40.65 -24.08,75.22 -69.22,152.77 -131.71,223.73 -96.45,109.44 -234.593,203.17 -401.941,246.6 -0.351,0.09 -0.687,0.18 -1.043,0.28 70.965,34.71 136.141,53.12 189.064,53.02 18.78,-0.02 35.88,-2.27 51.27,-6.76 -15.99,10.85 -32.51,21.04 -49.45,30.51 -0.61,0.03 -1.21,0.03 -1.82,0.03 -64.841,-0.1 -141.923,-24.29 -224.482,-68.2 -86.16,19.58 -170.519,28.94 -249.714,28.94 -18.524,0 -36.735,-0.53 -54.606,-1.52 2.301,19.03 6.008,36.15 11.106,50.98 9.222,26.79 22.668,45.95 39.906,57.48 l -0.414,0.6 c -14.531,-3.34 -28.856,-7.19 -43.024,-11.45 -7.691,-11.38 -13.992,-24.47 -18.957,-38.94 -6.16,-17.96 -10.355,-38.19 -12.738,-60.37 -92.172,-7.62 -174.957,-28.86 -242.336,-62.32 -0.266,-0.14 -0.555,-0.28 -0.828,-0.42 -21.273,-20.67 -41.207,-42.73 -59.613,-66.05 20.633,16.83 44.41,31.93 71.015,45.17 63.086,31.39 141.746,51.87 229.871,59.59 -0.382,-7.75 -0.566,-15.7 -0.566,-23.83 0.047,-60.12 10.195,-131.03 29.734,-208.42 -19.675,-19.77 -39.191,-40.35 -58.429,-61.72 -66.883,-74.39 -123.942,-151.06 -169.688,-225.92 -10.824,13.21 -21.14,26.56 -30.832,40.01 -72.562,100.68 -112.215,207 -112.168,303.32 0,4.72 0.141,9.46 0.321,14.16 -8.1763,-12.95 -15.9497,-26.16 -23.2192,-39.7 6.2812,-95.48 47.1872,-196.49 115.7852,-291.69 11.582,-16.09 24.012,-32.03 37.152,-47.74 -13.234,-22.6 -25.422,-45.01 -36.504,-67.06 -51.035,-101.86 -79.031,-196.66 -79.074,-274.15 0,-6.94 0.231,-13.78 0.695,-20.48 9.875,-14.3 20.282,-28.22 31.2,-41.69 -5.383,18.33 -8.098,39.09 -8.114,62.17 -0.07,71.77 26.536,163.91 76.567,263.46 9.695,19.29 20.262,38.9 31.664,58.68 69.433,-78.26 157.965,-150.4 261.883,-209.36 96.304,-54.57 195.511,-92.01 291.351,-112.67 17.614,-21.23 35.203,-40.98 52.672,-59.11 41.074,-42.54 81.399,-76.31 119.621,-99.65 28.423,-17.31 55.733,-29 81.553,-33.89 9.87,6.84 19.51,13.94 28.99,21.26 -0.93,-0.02 -1.83,-0.05 -2.75,-0.05 -26.87,-0.07 -59.53,11.06 -95.402,32.97" /><path
         id="path92"
         style="fill:#ffffff;fill-opacity:1;fill-rule:nonzero;stroke:none"
         d="m 737.418,2399.05 c 106.609,41.73 212.684,103.58 311.322,184.77 119.01,98.01 212.5,212.06 276.74,330.49 7.58,14.04 14.74,28.11 21.51,42.23 0,0.69 0.03,1.37 0.03,2.04 0,86.48 -16.35,169.13 -46.03,245.1 -10.43,-74.22 -37.27,-153.77 -80.1,-232.68 -56.36,-104.05 -140.12,-206.79 -247.73,-295.36 -89.18,-73.4 -184.715,-128.9 -279.105,-165.85 -94.403,-36.93 -187.61,-55.27 -271.692,-55.25 -64.879,0 -124.183,10.84 -175.117,31.64 -50.969,20.84 -93.633,51.27 -127.289,92.04 l -1.484,-1.21 c 73.562,-106.8 177.113,-191.31 298.558,-241.36 1.782,0 3.567,-0.05 5.332,-0.05 101.231,0.05 208.395,21.75 315.055,63.45" /><g
         id="g94"><g
           clip-path="url(#clipPath100)"
           id="g96"><path
             id="path110"
             style="fill:url(#linearGradient108);fill-opacity:1;fill-rule:nonzero;stroke:none"
             d="m 1335.15,3486.52 c 10.01,12.44 16.02,28.28 16.02,45.47 0,40.1 -32.5,72.56 -72.57,72.56 -40.07,0 -72.57,-32.46 -72.57,-72.56 0,-40.06 32.5,-72.56 72.57,-72.56 7.25,0 14.25,1.07 20.86,3.06 29.96,-55.97 44.52,-120.22 44.56,-189.72 0.33,-200.77 -123.95,-443.43 -346.692,-626.51 -184.336,-151.85 -395.812,-229.89 -574.965,-229.77 -69.066,0 -133.285,11.52 -189.472,34.44 -1.293,0.51 -2.52,1.07 -3.825,1.61 30.344,-26.65 63.063,-50.63 97.86,-71.55 30.793,-4.89 62.707,-7.33 95.437,-7.33 191.43,0.14 410.953,82.22 602.187,239.54 230.57,190.05 361.98,441.42 362.3,659.57 0.05,76.97 -16.68,149.98 -51.7,213.75" /></g></g><g
         transform="scale(10)"
         id="g112"><text
           id="text116"
           style="font-variant:normal;font-weight:bold;font-size:75px;font-family:MyriadPro;-inkscape-font-specification:MyriadPro-Bold;writing-mode:lr-tb;fill:#4983cc;fill-opacity:1;fill-rule:nonzero;stroke:none"
           transform="matrix(1,0,0,-1,0,18.75)"><tspan
             id="tspan114"
             sodipodi:role="line"
             y="0"
             x="0 39.374496 78.599495 143.09851 188.1722 231.44659 263.99591 284.5452 328.2702 392.7692 407.91858 449.5426 491.1676 532.79163">Symposium 2021</tspan></text></g><g
         transform="scale(10)"
         id="g118"><text
           id="text122"
           style="font-variant:normal;font-weight:normal;font-size:72px;font-family:MyriadPro;-inkscape-font-specification:MyriadPro-Regular;writing-mode:lr-tb;fill:#3164b2;fill-opacity:1;fill-rule:nonzero;stroke:none"
           transform="matrix(1,0,0,-1,532.481,229.734)"><tspan
             id="tspan120"
             y="0"
             x="0">®</tspan></text></g></g></g></svg>
